<svg xmlns="http://www.w3.org/2000/svg" xmlns:xlink="http://www.w3.org/1999/xlink" viewBox="0 0 66 65" fill="#fff" fill-rule="evenodd" stroke="#000" stroke-linecap="round" stroke-linejoin="round"><use xlink:href="#A" x=".5" y=".5"/><symbol id="A" overflow="visible"><g stroke="none" fill-rule="nonzero"><path d="M0 10A9.98 9.98 0 0 1 10 0h44a9.98 9.98 0 0 1 10 10v44a9.98 9.98 0 0 1-10 10H10A9.98 9.98 0 0 1 0 54z" fill="#1a1a1a"/><path d="M15.52 16.662l4.013-.107.83 31.33-4.013.107z" fill="#0f9"/><path d="M43.84 23.945l4.02-.107.617 23.315-4.02.107z" fill="#93f"/><path d="M16.352 47.982l32.125-.854.107 4.02L16.46 52z" fill="#0cf"/><path d="M15.412 12.645l20.076-.534.107 4.02-20.076.534z" fill="#ff9"/><path d="M39.617 16.017l-.107-4.015-4.022.107.32 12.05 12.05-.32-.107-4.015-4.022.107-.107-4.015z" fill="#f66"/><path d="M43.844 23.943l4.02-.107.107 4.02-4.02.107z" fill="#4c197f"/></g></symbol></svg>